<svg xmlns="http://www.w3.org/2000/svg" width="137" height="30" viewBox="0 0 137 30" fill="none">
<path fill-rule="evenodd" clip-rule="evenodd" d="M15.66 0C6.20404 0 0 6.88496 0 14.9674C0 21.3174 3.88945 27.1129 10.3575 29.1543C11.2463 29.4346 12.183 29.6449 13.166 29.7751C12.7712 28.6136 12.0629 27.9999 11.321 27.3573C10.6904 26.8109 10.0422 26.2473 9.59638 25.3728C9.52648 25.2361 9.4609 25.0929 9.40182 24.9397C9.31006 24.7007 9.24081 24.4637 9.18389 24.227C6.19754 22.2737 4.32142 18.936 4.32142 14.9674C4.32142 8.55283 9.15619 3.8488 15.66 3.8488C22.2064 3.8488 27.0416 8.55283 27.0416 14.9674C27.0416 17.7132 26.1419 20.1559 24.5958 22.0485C24.8071 23.6645 24.7043 25.3083 23.9394 26.8047C23.6267 27.4164 23.2127 27.9779 22.7011 28.4892C28.2256 26.0215 31.3632 20.7003 31.3632 14.9674C31.3632 6.84235 25.2871 0 15.66 0Z" fill="#FFFFF2"/>
<path fill-rule="evenodd" clip-rule="evenodd" d="M17.3434 22.0677C16.9156 21.0978 16.4732 20.0951 16.2111 18.9137C15.9278 17.6379 15.8408 16.4855 15.9053 15.4419C14.2878 16.6964 12.6251 18.4806 13.6295 21.8862L13.6379 21.9178C13.9156 23.0696 14.4532 23.924 14.9732 24.75C15.2505 25.1904 15.5234 25.6254 15.745 26.0844C16.246 27.1228 16.481 28.2867 15.8895 29.928C15.8811 29.9515 15.8711 29.976 15.8623 30C15.8867 29.9751 15.9086 29.9515 15.9326 29.9271C17.5451 28.2863 18.1914 26.9917 18.3041 25.8114C18.4268 24.5292 17.9226 23.3804 17.3434 22.0677Z" fill="#FFFFF2"/>
<path fill-rule="evenodd" clip-rule="evenodd" d="M14.2222 26.0024C14.1129 25.8196 13.9959 25.6334 13.874 25.4396C13.8372 25.3812 13.7993 25.3206 13.7619 25.2607C13.2442 24.4351 12.6854 23.4957 12.3792 22.2362C12.1271 21.3766 12.0204 20.6003 12.0221 19.8948C10.4421 21.2549 9.9666 22.7914 10.6137 24.4727C10.7163 24.7392 10.8474 24.9693 10.9972 25.1807C11.3134 25.6277 11.7204 25.9848 12.1715 26.3755C13.0715 27.1552 14.0781 28.0321 14.5354 29.8384C14.6354 29.6055 14.7148 29.3857 14.776 29.1774C15.1636 27.8532 14.8079 26.9805 14.2222 26.0024Z" fill="#FFFFF2"/>
<path fill-rule="evenodd" clip-rule="evenodd" d="M21.9347 17.317C21.5947 16.3737 21.3013 15.5589 21.1411 14.854C20.6269 12.5931 20.957 10.5062 21.3764 9.05033C20.4006 9.63801 19.5944 10.3092 18.9586 11.063C18.4125 11.7106 17.992 12.4187 17.6979 13.1868C17.3843 14.0051 17.2134 14.8908 17.1872 15.8436C17.1632 16.7179 17.2595 17.6479 17.4783 18.6336C17.5629 19.0149 17.6717 19.3809 17.7945 19.7365C18.012 20.3664 18.274 20.9623 18.5311 21.5452C18.8525 22.2739 19.1685 22.9931 19.3788 23.7365C19.5358 24.2907 19.6321 24.8589 19.6277 25.4543C19.623 26.0855 19.5026 26.7478 19.2185 27.4579C18.9289 28.1814 18.4673 28.9553 17.781 29.7961C18.0726 29.7037 18.3513 29.6049 18.6201 29.5017C19.7236 29.0777 20.6388 28.5627 21.3591 27.9593C21.9767 27.4419 22.4533 26.8607 22.7829 26.2159C23.2475 25.3066 23.4155 24.3155 23.3973 23.2957C23.3614 21.2789 22.595 19.1493 21.9347 17.317Z" fill="#FFFFF2"/>
<path d="M44.9995 27.2722V4.09069C44.9995 3.33759 44.3889 2.72707 43.6358 2.72707C42.8827 2.72707 42.2722 3.33758 42.2722 4.09069V27.2722C42.2722 28.0253 42.8827 28.6358 43.6358 28.6358C44.3889 28.6358 44.9995 28.0253 44.9995 27.2722Z" fill="#0066FF"/>
<path d="M62.225 27.2736V16.5065H71.3885V13.9538H62.225V5.83751H73.0248V3.25209H59.1814V27.2736H62.225ZM92.1264 27.2736V24.6882H81.6538V3.25209H78.6102V27.2736H92.1264ZM105.206 27.699C110.115 27.699 113.846 25.0809 113.846 17.3573V3.25209H110.933V17.4555C110.933 23.2482 108.413 25.0482 105.206 25.0482C102.097 25.0482 99.6427 23.2482 99.6427 17.4555V3.25209H96.5991V17.3573C96.5991 25.0809 100.33 27.699 105.206 27.699ZM121.755 27.2736L125.224 20.7937C125.846 19.5828 126.468 18.3719 127.155 16.9319H127.286C128.071 18.3719 128.726 19.5828 129.348 20.7937L132.882 27.2736H136.22L129.217 15.0337L135.762 3.25209H132.588L129.38 9.40473C128.791 10.5174 128.333 11.532 127.679 12.9065H127.548C126.762 11.532 126.271 10.5174 125.65 9.40473L122.377 3.25209H119.039L125.584 14.8701L118.581 27.2736H121.755Z" fill="#FFFFF2"/>
</svg>